<?xml version="1.0" encoding="iso-8859-1"?>
<!-- Generator: Adobe Illustrator 19.0.0, SVG Export Plug-In . SVG Version: 6.00 Build 0)  -->
<svg version="1.1" id="Capa_1" xmlns="http://www.w3.org/2000/svg" xmlns:xlink="http://www.w3.org/1999/xlink" x="0px" y="0px"
	stroke="white" viewBox="0 0 490 490" style="enable-background:new 0 0 490 490;" xml:space="preserve" fill="white" >
<path d="M348.36,490L245,437.265L141.64,490v-64.682l51.467-55.236v-64.686L0,363.323v-63.507l193.107-137.082V60.343
	C193.107,27.069,216.39,0,245,0c28.609,0,51.893,27.069,51.893,60.343v102.391L490,299.816v63.507l-193.107-57.927v64.686
	l51.467,55.236V490z M245,414.104l82.509,42.099v-22.87l-51.467-55.236V277.645l193.107,57.927v-25.219L276.042,173.27V60.343
	c0-21.93-13.927-39.773-31.042-39.773c-17.115,0-31.042,17.843-31.042,39.773V173.27L20.851,310.352v25.219l193.107-57.927v100.453
	l-51.467,55.236v22.87L245,414.104z"/>
<g>
</g>
<g>
</g>
<g>
</g>
<g>
</g>
<g>
</g>
<g>
</g>
<g>
</g>
<g>
</g>
<g>
</g>
<g>
</g>
<g>
</g>
<g>
</g>
<g>
</g>
<g>
</g>
<g>
</g>
</svg>
