<svg width="22" height="21" viewBox="0 0 22 21" fill="none" xmlns="http://www.w3.org/2000/svg">
<path d="M5.73575 9.63429L18.0338 9.64163L14.8192 6.16814C14.3958 5.70939 14.4414 5.00464 14.9219 4.601C15.4023 4.19737 16.1409 4.24161 16.5644 4.70036L21.5114 10.0463C21.521 10.0557 21.521 10.0557 21.5306 10.0651C21.5403 10.0745 21.5498 10.0931 21.5692 10.1026C21.5787 10.1212 21.5883 10.1306 21.5979 10.1492C21.6075 10.1586 21.6171 10.1773 21.6266 10.1959C21.6362 10.2146 21.6458 10.2239 21.6553 10.2426C21.6649 10.2612 21.6745 10.2706 21.6841 10.2893C21.6936 10.3079 21.7031 10.3266 21.7128 10.3359C21.7223 10.3546 21.7222 10.3639 21.7318 10.3825C21.7413 10.4012 21.7411 10.4197 21.7508 10.4291C21.7603 10.4477 21.7602 10.457 21.7698 10.4757C21.7793 10.4943 21.7791 10.5129 21.779 10.5314C21.7788 10.55 21.7884 10.5594 21.7882 10.5779C21.7881 10.5965 21.7976 10.6151 21.7973 10.643C21.7972 10.6615 21.7971 10.6708 21.8066 10.6894C21.8156 10.7638 21.815 10.8287 21.8046 10.9028C21.8044 10.9214 21.8043 10.9307 21.7944 10.9491C21.7942 10.9677 21.7843 10.9861 21.784 11.014C21.7839 11.0325 21.774 11.0417 21.7739 11.0603C21.7737 11.0788 21.7638 11.0973 21.7636 11.1158C21.7537 11.1343 21.7535 11.1529 21.7437 11.1621C21.7338 11.1805 21.7336 11.1991 21.7238 11.2083C21.7139 11.2267 21.7138 11.236 21.7039 11.2545C21.694 11.2729 21.6841 11.2914 21.6743 11.3006C21.6644 11.319 21.6546 11.3282 21.6447 11.3467C21.6348 11.3651 21.625 11.3743 21.6151 11.3928C21.6052 11.4112 21.5953 11.4204 21.5854 11.4389C21.5755 11.4574 21.5657 11.4665 21.5558 11.485C21.546 11.4942 21.5361 11.5126 21.5166 11.5217C21.5068 11.5309 21.5068 11.5309 21.4969 11.5401L16.4477 16.7896C16.212 17.0286 15.8996 17.1555 15.5787 17.1524C15.2967 17.1497 15.0254 17.0543 14.8036 16.8573C14.3311 16.4444 14.299 15.7389 14.7312 15.2884L18.0123 11.8684L5.71426 11.861C5.07248 11.8548 4.55223 11.3487 4.55814 10.7364C4.56405 10.124 5.09397 9.6281 5.73575 9.63429Z" fill="white"/>
<path d="M0.500244 0.250793C1.74288 0.250793 2.75024 1.25815 2.75024 2.50079V18.2508C2.75024 19.4934 1.74288 20.5008 0.500244 20.5008V0.250793Z" fill="white"/>
</svg>
