<svg width="85" height="28" viewBox="0 0 85 28" fill="none" xmlns="http://www.w3.org/2000/svg">
<path d="M13.373 0.0835938C12.8558 0.192465 4.44553 1.96162 0.771137 11.0796C0.771137 11.0796 -3.06657 20.9324 6.37799 25.8044C6.37799 25.8044 12.1754 29.3427 18.8165 24.253C18.8165 24.253 24.0423 21.1501 22.4365 12.9032C22.4365 12.9032 21.6199 8.84771 18.4082 6.72473C18.4082 6.72473 15.5504 5.58158 16.4486 8.54832C16.4486 8.54832 18.2722 10.9707 18.6804 13.2026C18.6804 13.2026 19.6603 19.0544 12.7742 20.3064C12.7742 20.3064 6.2419 20.4153 6.02416 13.7197C6.02416 13.7197 5.56146 9.31042 12.3931 5.69045C12.3931 5.69045 15.1421 4.60174 15.9042 2.64206C15.9042 2.61484 16.5302 -0.542415 13.373 0.0835938Z" fill="#0271EE"/>
<path d="M9.15356 14.1553C9.15356 12.3317 10.6233 10.862 12.4469 10.862C14.2705 10.862 15.7403 12.3317 15.7403 14.1553C15.7403 15.9789 14.2705 17.4487 12.4469 17.4487C10.6505 17.4487 9.15356 15.9789 9.15356 14.1553Z" fill="#F46B45"/>
<path fill-rule="evenodd" clip-rule="evenodd" d="M36.21 16.0313C36.21 17.5283 34.4953 18.6442 32.7533 18.6442C31.338 18.6442 30.7392 17.9093 30.7392 16.7118C30.7392 15.2964 32.209 15.0243 33.1344 14.8882C35.4479 14.5888 35.9378 14.4255 36.2372 14.1805V16.0313H36.21ZM31.0931 12.1392C31.2291 11.2954 31.5285 9.98897 33.6515 9.98897C35.4207 9.98897 36.2644 10.615 36.2644 11.8126C36.2644 12.9285 35.7201 13.0918 35.2846 13.1462L32.1818 13.5273C29.0789 13.9083 28.7795 16.0858 28.7795 17.0112C28.7795 18.9436 30.2221 20.2228 32.2634 20.2228C34.4408 20.2228 35.5568 19.1886 36.2916 18.3993C36.3461 19.243 36.6183 20.114 38.2785 20.114C38.714 20.114 38.9862 19.9779 39.3128 19.8962V18.5353C39.0951 18.5898 38.8773 18.617 38.6868 18.617C38.3058 18.617 38.0608 18.4265 38.0608 17.9638V11.5404C38.0608 8.68252 34.8219 8.43756 33.9237 8.43756C31.1747 8.43756 29.4055 9.47183 29.3239 12.1392H31.0931Z" fill="#0271EE"/>
<path d="M49.4084 11.9233C49.4084 11.3789 49.1362 8.4122 45.1352 8.4122C42.9306 8.4122 40.9164 9.52813 40.9164 11.9777C40.9164 13.5019 41.9507 14.2912 43.5021 14.6723L45.6796 15.2166C47.2854 15.6249 47.8842 15.9243 47.8842 16.8225C47.8842 18.0473 46.6594 18.5916 45.3257 18.5916C42.6856 18.5916 42.4406 17.1763 42.359 16.3053H40.5354C40.5898 17.639 40.9164 20.1975 45.3257 20.1975C47.8298 20.1975 49.735 18.8094 49.735 16.5231C49.735 14.9989 48.9185 14.1551 46.605 13.5836L44.7269 13.1209C43.2844 12.767 42.7128 12.5493 42.7128 11.6239C42.7128 10.2358 44.3459 10.0453 44.9175 10.0453C47.2854 10.0453 47.5304 11.2156 47.5576 11.9233H49.4084Z" fill="#0271EE"/>
<path fill-rule="evenodd" clip-rule="evenodd" d="M51.7795 22.7269H53.6576V18.7259H53.712C54.2019 19.5152 55.1818 20.2228 56.6787 20.2228C60.462 20.2228 62.0134 16.6573 62.0134 13.99C62.0134 10.8599 59.9177 8.43756 56.9509 8.43756C54.9368 8.43756 54.0658 9.68958 53.6303 10.3428H53.5487V8.76417H51.7795V22.7269ZM53.5759 14.8337C53.5759 13.0101 53.8753 10.0978 56.5699 10.0978C59.455 10.0978 60.0537 12.8468 60.0537 14.2622C60.0537 16.7118 58.6656 18.5626 56.6243 18.5626C55.4267 18.5898 53.5759 17.8005 53.5759 14.8337Z" fill="#0271EE"/>
<path fill-rule="evenodd" clip-rule="evenodd" d="M65.2218 13.4475C65.2218 11.7328 66.5826 10.1269 68.3246 10.1269C70.6109 10.1269 71.3185 11.7328 71.4274 13.4475H65.2218ZM71.3458 16.387C71.2913 17.2035 70.2298 18.5916 68.4607 18.5916C66.3105 18.5916 65.2218 17.258 65.2218 14.9172H73.3599C73.3599 10.9707 71.7812 8.4122 68.5695 8.4122C64.8951 8.4122 63.2349 11.1612 63.2349 14.6178C63.2349 17.8295 65.0857 20.1975 68.2157 20.1975C70.0121 20.1975 70.7197 19.762 71.2369 19.4354C72.6522 18.51 73.1693 16.9314 73.2238 16.387H71.3458Z" fill="#0271EE"/>
<path d="M84.684 12.3043C84.684 9.11986 82.5066 8.4122 80.7919 8.4122C78.8594 8.4122 77.8251 9.71865 77.4169 10.3174H77.3624V8.73881H75.5933V19.8709H77.4713V13.8285C77.4713 10.8074 79.3493 10.1269 80.4108 10.1269C82.2344 10.1269 82.806 11.1068 82.806 13.0392V19.8981H84.684V12.3043Z" fill="#0271EE"/>
</svg>
