<svg width="18" height="20" viewBox="0 0 18 20" fill="none" xmlns="http://www.w3.org/2000/svg">
<path d="M15.401 16.9564H2.9668V8.06105C2.9668 4.63632 5.76449 1.83427 9.1839 1.83427C12.6033 1.83427 15.401 4.63632 15.401 8.06105V16.9564Z" fill="white"/>
<path d="M17.625 16.0677H0.75V16.9572H17.625V16.0677Z" fill="white"/>
<path d="M17.625 16.0676H0.75L2.97039 12.9542H15.4046L17.625 16.0676Z" fill="white"/>
<path d="M9.1838 3.16899C9.91957 3.16899 10.516 2.57159 10.516 1.83468C10.516 1.09776 9.91957 0.500366 9.1838 0.500366C8.44803 0.500366 7.85156 1.09776 7.85156 1.83468C7.85156 2.57159 8.44803 3.16899 9.1838 3.16899Z" fill="white"/>
<path d="M10.9596 17.8459C10.9596 18.8244 10.1603 19.625 9.1833 19.625C8.20632 19.625 7.40698 18.8244 7.40698 17.8459" fill="white"/>
</svg>
