<svg width="21" height="21" viewBox="0 0 21 21" fill="none" xmlns="http://www.w3.org/2000/svg">
<path fill-rule="evenodd" clip-rule="evenodd" d="M4.42313 0.563171C4.42313 0.252511 4.67497 0.000671387 4.98563 0.000671387H7.6575C7.96816 0.000671387 8.22 0.252511 8.22 0.563171V2.53048H13.2823V0.563171C13.2823 0.252511 13.5342 0.000671387 13.8448 0.000671387H16.5167C16.8274 0.000671387 17.0792 0.252511 17.0792 0.563171V2.53048H19.751C20.3723 2.53048 20.876 3.03416 20.876 3.65548V19.1242C20.876 19.7455 20.3723 20.2492 19.751 20.2492H19.6103V20.2509L1.89153 20.2508V20.2492H1.75098C1.12966 20.2492 0.625977 19.7455 0.625977 19.1242V3.65548C0.625977 3.03416 1.12966 2.53048 1.75098 2.53048H4.42313V0.563171ZM18.626 6.32859V17.7196L3.15725 17.7196L3.15725 6.3291H2.87598V6.32859H18.626ZM16.517 16.4522C16.8277 16.4522 17.0795 16.2004 17.0795 15.8897V12.5147C17.0795 12.2041 16.8277 11.9522 16.517 11.9522H12.017C11.7063 11.9522 11.4545 12.2041 11.4545 12.5147V15.8897C11.4545 16.2004 11.7063 16.4522 12.017 16.4522H16.517Z" fill="white"/>
</svg>
