<svg width="51" height="50" viewBox="0 0 51 50" fill="none" xmlns="http://www.w3.org/2000/svg">
<rect opacity="0.2" x="0.625" y="0.248383" width="49.5" height="49.5" rx="24.75" fill="#33CDBA"/>
<path fill-rule="evenodd" clip-rule="evenodd" d="M21.2085 22.2674L22.694 20.7134C22.9641 20.4432 23.0992 19.8351 22.694 19.4298L19.858 16.2543C19.858 16.2543 19.1827 15.7814 18.575 16.1192C18.0348 16.457 15.8741 18.1461 16.4818 21.862C17.157 25.9833 24.3821 33.28 28.5011 33.888C32.2149 34.4961 33.903 32.4017 34.2407 31.7936C34.5783 31.1856 34.1731 30.5099 34.1731 30.5099L30.932 27.6723C30.3918 27.1318 29.9191 27.4021 29.649 27.6723L28.1635 29.1587C27.0156 29.9694 20.3982 23.3484 21.2085 22.2674Z" fill="#33CDBA"/>
</svg>
