<svg width="21" height="21" viewBox="0 0 21 21" fill="none" xmlns="http://www.w3.org/2000/svg">
<g opacity="0.6">
<path d="M15.931 1.24189L11.2004 5.23236C11.0223 5.38254 10.7551 5.36097 10.6039 5.18417C10.4527 5.00737 10.4744 4.74203 10.6524 4.59185L15.3834 0.60138C15.5614 0.451198 15.8286 0.472772 15.9798 0.649572C16.131 0.826372 16.1093 1.09171 15.931 1.24189Z" fill="#A9B3D2"/>
<path d="M4.42046 12.2368L6.7972 15.0157C6.8477 15.0746 6.84036 15.1631 6.78111 15.2132L5.81338 16.0294L1.16767 17.7195C0.921366 17.8092 0.696219 17.5458 0.824874 17.3188L3.25409 13.037L4.22183 12.2209C4.2808 12.1707 4.36995 12.178 4.42046 12.2368Z" fill="#A9B3D2"/>
<path d="M7.43158 14.4673L5.05482 11.6884C5.00432 11.6295 5.01166 11.541 5.07091 11.4908L14.7478 3.32864C14.807 3.27849 14.8962 3.28577 14.9467 3.34461L17.3234 6.12352C17.3739 6.18236 17.3666 6.2709 17.3074 6.32106L7.63049 14.4835C7.57096 14.5337 7.48208 14.5264 7.43158 14.4673Z" fill="#A9B3D2"/>
<path d="M20.0026 4.05637L18.1749 5.59824C18.1156 5.64839 18.0265 5.64111 17.976 5.58227L15.5993 2.80309C15.5488 2.74425 15.5561 2.65571 15.6153 2.60556L17.443 1.06368C18.0369 0.562708 18.9271 0.634717 19.4315 1.22451L20.1643 2.08133C20.6687 2.6714 20.5962 3.55539 20.0026 4.05637Z" fill="#A9B3D2"/>
<rect x="0.426758" y="18.728" width="14.677" height="2.23502" rx="1.11751" fill="#A9B3D2"/>
</g>
</svg>
