<svg width="50" height="50" viewBox="0 0 50 50" fill="none" xmlns="http://www.w3.org/2000/svg">
<rect opacity="0.2" x="0.375366" y="0.24873" width="49.5" height="49.5" rx="24.75" fill="#36A6FF"/>
<path opacity="0.9" d="M16.5185 18.2486C15.6771 18.2486 14.9998 18.8714 14.9998 19.6451V30.352C14.9998 31.1257 15.6771 31.7486 16.5185 31.7486H33.731C34.5724 31.7486 35.2498 31.1257 35.2498 30.352V19.6451C35.2498 18.8714 34.5724 18.2486 33.731 18.2486H16.5185ZM17.5231 20.5689C17.5979 20.5612 17.6737 20.569 17.7449 20.5916C17.816 20.6143 17.8808 20.6512 17.9344 20.6998L24.4445 26.3733C24.8471 26.7243 25.3936 26.717 25.7971 26.3661L32.3151 20.6999C32.3634 20.6578 32.4202 20.625 32.4823 20.6031C32.5444 20.5813 32.6106 20.5709 32.6771 20.5726C32.7436 20.5743 32.809 20.588 32.8698 20.613C32.9305 20.6379 32.9852 20.6736 33.031 20.718C33.0767 20.7625 33.1124 20.8147 33.1361 20.8718C33.1599 20.929 33.1712 20.9898 33.1693 21.051C33.1675 21.1121 33.1526 21.1723 33.1254 21.2281C33.0983 21.2839 33.0595 21.3343 33.0112 21.3763L28.9928 24.8677L33.0191 28.6282C33.0675 28.6714 33.106 28.7229 33.1324 28.7799C33.1588 28.8369 33.1726 28.8982 33.1729 28.9602C33.1732 29.0221 33.1601 29.0835 33.1343 29.1407C33.1085 29.198 33.0705 29.2499 33.0226 29.2935C32.9747 29.337 32.9179 29.3714 32.8553 29.3945C32.7928 29.4176 32.7259 29.4289 32.6585 29.4279C32.5912 29.427 32.5247 29.4136 32.463 29.3887C32.4013 29.3638 32.3456 29.3278 32.2993 29.2828L28.2572 25.5078L26.4932 27.0425C25.7239 27.7117 24.5095 27.713 23.7405 27.0425L21.9844 25.5151L17.9502 29.2828C17.9039 29.3278 17.8482 29.3638 17.7865 29.3887C17.7248 29.4136 17.6583 29.427 17.591 29.4279C17.5236 29.4289 17.4567 29.4176 17.3942 29.3945C17.3317 29.3714 17.2748 29.337 17.2269 29.2935C17.179 29.2499 17.141 29.198 17.1152 29.1407C17.0894 29.0835 17.0763 29.0221 17.0766 28.9602C17.0769 28.8982 17.0907 28.8369 17.1171 28.7799C17.1435 28.7229 17.1821 28.6714 17.2304 28.6282L21.2488 24.875L17.2383 21.3763C17.1662 21.3161 17.1145 21.238 17.0895 21.1513C17.0644 21.0647 17.0671 20.9733 17.0971 20.8881C17.1272 20.8028 17.1834 20.7274 17.259 20.6708C17.3345 20.6142 17.4262 20.5788 17.5231 20.569V20.5689Z" fill="#43ACFF"/>
</svg>
