<svg width="24" height="19" viewBox="0 0 24 19" fill="none" xmlns="http://www.w3.org/2000/svg">
<path d="M10.0435 13.6284C10.0435 11.9973 11.2099 10.5996 12.8147 10.3079L13.5377 10.1764C15.8 9.7651 18.1178 9.7651 20.3801 10.1764L21.1031 10.3079C22.7079 10.5996 23.8743 11.9973 23.8743 13.6284V15.8411H10.0435V13.6284Z" fill="#2BE1CB"/>
<rect x="13.8159" y="0.752747" width="6.28676" height="6.28676" rx="3.14338" fill="#2BE1CB"/>
<path d="M16.3304 16.9661H17.4554V15.8411V13.6284C17.4554 11.4536 15.9001 9.59005 13.7604 9.20102L13.0374 9.06956C10.6421 8.63405 8.18784 8.63405 5.79253 9.06956L5.06953 9.20102C2.92982 9.59005 1.37451 11.4536 1.37451 13.6284V15.8411V16.9661H2.49951H16.3304Z" fill="#2BE1CB" stroke="#0183FF" stroke-width="2.25"/>
<rect x="6.27173" y="0.752747" width="6.28676" height="6.28676" rx="3.14338" fill="#2BE1CB"/>
</svg>
