<svg width="22" height="17" viewBox="0 0 22 17" fill="none" xmlns="http://www.w3.org/2000/svg">
<path d="M1.5278 13.8626H2.58829V15.9982C2.58829 16.8019 3.01707 16.9614 3.53145 16.3439L5.61192 13.8626H14.765C15.2439 13.8626 15.6564 13.4334 15.6564 12.9545V10.8565H8.84263C7.793 10.8565 6.88867 9.96304 6.88867 8.91299V3.29953H1.5278C1.04892 3.29953 0.625977 3.65776 0.625977 4.13664V12.9545C0.625977 13.4334 1.04892 13.8626 1.5278 13.8626Z" fill="white"/>
<path d="M21.501 0.252592H8.80864C8.74363 0.25098 8.67896 0.262353 8.6184 0.286044C8.55785 0.309734 8.50262 0.345267 8.45597 0.390561C8.40931 0.435856 8.37216 0.490002 8.34669 0.549831C8.32122 0.60966 8.30794 0.673969 8.30762 0.738994V8.964C8.30704 9.09842 8.35918 9.22771 8.45285 9.32411C8.54652 9.42052 8.67426 9.47635 8.80864 9.47963H16.5978L19.3116 12.7333C19.826 13.3508 20.2468 13.1926 20.2468 12.3876V9.47963H21.4994C21.6337 9.47635 21.7615 9.42052 21.8551 9.32411C21.9488 9.22771 22.001 9.09842 22.0004 8.964V0.738994C22.0001 0.674113 21.9868 0.609944 21.9615 0.550227C21.9361 0.490511 21.8991 0.436441 21.8526 0.391169C21.8061 0.345897 21.7511 0.310328 21.6908 0.286536C21.6304 0.262745 21.5659 0.251206 21.501 0.252592Z" fill="white"/>
</svg>
