<svg width="62" height="62" viewBox="0 0 62 62" fill="none" xmlns="http://www.w3.org/2000/svg">
<rect opacity="0.1" x="0.374023" y="0.751465" width="59.1513" height="59.1513" rx="29.5757" fill="#A9B3D2"/>
<rect x="40.3411" y="40.7214" width="19.1842" height="19.1842" rx="9.59211" fill="#F6F7FB"/>
<path d="M58.1438 41.5847C59.4429 38.1242 60.1306 34.51 60.1306 30.8189C60.1306 14.2856 46.758 0.751465 30.2523 0.751465C13.7467 0.751465 0.374023 14.2856 0.374023 30.8189C0.374023 39.9698 4.42402 48.1211 10.8429 53.6578C10.9193 53.7347 10.9957 53.8116 11.1486 53.8885C16.3448 58.1948 22.9929 60.8863 30.2523 60.8863C34.1495 60.8863 37.9702 60.1173 41.5618 58.6562C43.625 60.4249 46.2995 61.5015 49.2797 61.5015C55.8514 61.5015 61.124 56.1185 61.124 49.5822C61.124 46.5062 59.9778 43.661 58.1438 41.5847ZM3.12497 30.8189C3.12497 15.7467 15.3514 3.51982 30.2523 3.51982C45.1533 3.51982 57.3797 15.7467 57.3797 30.8189C57.3797 33.8179 56.9212 36.817 55.9278 39.6622C55.8514 39.6622 55.8514 39.5853 55.775 39.5853C55.5457 39.4315 55.3165 39.2777 55.0872 39.1239C55.0108 39.047 54.858 38.9701 54.7816 38.9701C54.5523 38.8932 54.3995 38.7394 54.1702 38.6625C54.0938 38.5856 53.941 38.5856 53.8646 38.5087C53.6353 38.4318 53.3297 38.278 53.1004 38.2011C53.024 38.2011 52.9476 38.1242 52.9476 38.1242C52.6419 38.0473 52.2599 37.9705 51.9542 37.8936C51.8778 37.8936 51.725 37.8167 51.6485 37.8167C51.4193 37.7397 51.1136 37.7398 50.8844 37.6629C50.808 37.6629 50.6552 37.6629 50.5787 37.6629C50.1967 37.6629 49.891 37.586 49.5089 37.586C47.4457 37.586 45.5353 38.1242 43.9306 38.9701C42.708 37.8167 41.4089 36.817 39.8806 36.048C41.4853 34.0486 42.4023 31.511 42.4023 28.7426C42.4023 22.1293 37.0533 16.8233 30.558 16.8233C24.0627 16.8233 18.408 22.1293 18.408 28.7426C18.408 31.511 19.325 34.0486 20.9297 36.1249C13.8231 40.0467 11.607 46.1986 10.8429 49.8129C6.10516 44.8913 3.12497 38.2011 3.12497 30.8189ZM21.1589 28.7426C21.1589 23.6673 25.2853 19.5917 30.2523 19.5917C35.2193 19.5917 39.3457 23.7442 39.3457 28.7426C39.3457 33.741 35.2193 37.8936 30.2523 37.8936C25.2853 37.8936 21.1589 33.8179 21.1589 28.7426ZM30.2523 58.041C23.8335 58.041 17.9495 55.811 13.2882 52.0429C13.441 49.8129 14.6636 42.3537 22.9165 38.1242C24.9033 39.7391 27.5014 40.6619 30.2523 40.6619C33.0033 40.6619 35.6014 39.6622 37.5882 38.1242C38.9636 38.8163 40.2627 39.6622 41.4089 40.6619C38.9636 42.8151 37.4353 46.0448 37.4353 49.5053C37.4353 49.8898 37.4353 50.2743 37.5118 50.5818C37.5118 50.6587 37.5118 50.8125 37.5118 50.8894C37.5118 51.197 37.5882 51.4277 37.6646 51.7353C37.6646 51.8122 37.6646 51.8891 37.741 51.966C37.8938 52.735 38.1231 53.4271 38.4287 54.1192C38.5816 54.4268 38.7344 54.8113 38.8872 55.1189C38.8872 55.1189 38.8872 55.1958 38.9636 55.1958C39.1165 55.5034 39.3457 55.811 39.4985 56.1185C39.4985 56.1185 39.4985 56.1185 39.4985 56.1954C39.575 56.2723 39.575 56.3492 39.6514 56.3492C36.5948 57.5027 33.4618 58.041 30.2523 58.041ZM49.2797 58.7331C44.924 58.7331 41.2561 55.6572 40.4155 51.5046V51.4277C40.3391 51.197 40.3391 50.9663 40.3391 50.6587C40.3391 50.5818 40.3391 50.5818 40.3391 50.5049C40.3391 50.1974 40.2627 49.8898 40.2627 49.5822C40.2627 44.5068 44.3127 40.4312 49.3561 40.4312C49.6618 40.4312 49.9674 40.4312 50.2731 40.5081C50.4259 40.5081 50.5023 40.5081 50.6552 40.585C50.808 40.585 51.0372 40.6619 51.1901 40.6619C51.3429 40.6619 51.4957 40.7388 51.6485 40.7388C51.8014 40.7388 51.9542 40.8157 52.0306 40.8157C52.1835 40.8926 52.3363 40.8926 52.4891 40.9695C52.6419 41.0464 52.7184 41.0464 52.8712 41.1233C53.024 41.2002 53.1768 41.2771 53.3297 41.354C53.4061 41.4309 53.5589 41.4309 53.6353 41.5078C53.7882 41.5847 53.941 41.7385 54.1702 41.8154C54.2467 41.8923 54.3231 41.8923 54.3995 41.9692C54.5523 42.123 54.7816 42.1999 54.9344 42.3537C55.0108 42.4306 55.0108 42.4306 55.0872 42.5075C55.2401 42.6613 55.4693 42.8151 55.6221 42.9689C57.4561 44.6606 58.5259 47.0445 58.5259 49.6591C58.3731 54.5806 54.3231 58.7331 49.2797 58.7331ZM54.4759 49.5053C54.4759 50.2742 53.8646 50.8894 53.1004 50.8894H50.6552V53.3502C50.6552 54.1192 50.0438 54.7344 49.2797 54.7344C48.5155 54.7344 47.9042 54.1192 47.9042 53.3502V50.8894H45.4589C44.6948 50.8894 44.0835 50.2742 44.0835 49.5053C44.0835 48.7363 44.6948 48.1211 45.4589 48.1211H47.9042V45.6603C47.9042 44.8913 48.5155 44.2761 49.2797 44.2761C50.0438 44.2761 50.6552 44.8913 50.6552 45.6603V48.1211H53.1004C53.8646 48.1211 54.4759 48.7363 54.4759 49.5053Z" fill="#A9B3D2"/>
</svg>
