<svg width="27" height="11" viewBox="0 0 27 11" fill="none" xmlns="http://www.w3.org/2000/svg">
<path d="M0.556467 0.721654V10.2373H3.35246V7.63911H4.7109C6.93319 7.63911 8.44329 6.28727 8.44329 4.19027C8.44329 2.07349 7.01891 0.721654 4.90213 0.721654H0.556467ZM3.35246 2.82525H4.15697C5.06699 2.82525 5.62091 3.29344 5.62091 4.19687C5.62091 5.10688 5.06699 5.57508 4.13719 5.57508H3.35246V2.82525ZM9.70254 0.721654V10.2373H13.7712C16.653 10.2373 18.3543 8.4568 18.3543 5.41022C18.3543 2.36364 16.6596 0.721654 13.7712 0.721654H9.70254ZM12.4985 2.94394H13.3756C14.7142 2.94394 15.5056 3.8078 15.5056 5.41022C15.5056 7.16432 14.7736 8.01498 13.3756 8.01498H12.4985V2.94394ZM22.5151 10.2373V6.86757H26.0364V4.77057H22.5151V2.94394H26.4057V0.721654H19.7191V10.2373H22.5151Z" fill="white"/>
</svg>
