<svg width="22" height="22" viewBox="0 0 22 22" fill="none" xmlns="http://www.w3.org/2000/svg">
<g opacity="0.6">
<path d="M16.4383 15.2136L16.4384 15.2136L16.4404 15.2111C16.6181 14.989 16.6214 14.6516 16.3947 14.4465L12.3597 10.4317L11.9165 6.44255C11.9165 6.44244 11.9165 6.44233 11.9165 6.44222C11.8921 6.20074 11.6345 6.02738 11.3543 6.02738C11.074 6.02738 10.8164 6.20077 10.792 6.44228C10.792 6.44237 10.792 6.44246 10.792 6.44255L10.2658 11.2592C10.2416 11.3871 10.3172 11.5256 10.4259 11.6136C10.4412 11.6282 10.4607 11.6405 10.4784 11.6506C10.4965 11.661 10.5167 11.6712 10.5356 11.6806L15.6749 15.3024C15.675 15.3025 15.6752 15.3026 15.6753 15.3027C15.9229 15.4825 16.2383 15.4359 16.4383 15.2136Z" fill="#A9B3D2" stroke="#A9B3D2" stroke-width="0.112543"/>
<path d="M18.6438 3.85822L18.6428 3.85717C16.693 1.92788 14.1263 0.859992 11.3754 0.859992C8.62441 0.859992 6.05772 1.92788 4.10791 3.85717C2.15662 5.78793 1.10969 8.37581 1.10969 11.1257C1.10969 13.8766 2.17758 16.4433 4.10686 18.3931L4.10739 18.3936C6.03748 20.3237 8.62484 21.3913 11.3754 21.3913C14.1263 21.3913 16.693 20.3235 18.6428 18.3942L18.6433 18.3936C20.5734 16.4636 21.641 13.8762 21.641 11.1257C21.641 8.37473 20.5731 5.80804 18.6438 3.85822ZM11.3754 19.7532C6.6133 19.7532 2.74779 15.8877 2.74779 11.1257C2.74779 6.36362 6.6133 2.4981 11.3754 2.4981C16.1374 2.4981 20.0029 6.36362 20.0029 11.1257C20.0029 15.8877 16.1374 19.7532 11.3754 19.7532Z" fill="#A9B3D2" stroke="#A9B3D2" stroke-width="0.281358"/>
</g>
</svg>
