<svg xmlns="http://www.w3.org/2000/svg" width="46.994" height="46.994" viewBox="0 0 46.994 46.994">
  <path id="add_icon" data-name="add icon" d="M365.057,1311.989A14.1,14.1,0,0,1,351,1297.931v-18.879a14.1,14.1,0,0,1,14.057-14.057h18.88a14.1,14.1,0,0,1,14.057,14.057v18.879a14.1,14.1,0,0,1-14.057,14.058Zm-11.048-32.937v18.879a11.061,11.061,0,0,0,11.048,11.049h18.88a11.061,11.061,0,0,0,11.048-11.049v-18.879A11.062,11.062,0,0,0,383.937,1268h-18.88A11.062,11.062,0,0,0,354.009,1279.051Zm18.851,21.436V1290.02H362.393a1.535,1.535,0,0,1,0-3.071H372.86v-10.467a1.536,1.536,0,1,1,3.072,0v10.467H386.4a1.535,1.535,0,0,1,0,3.071H375.932v10.467a1.536,1.536,0,0,1-3.072,0Z" transform="translate(-351 -1264.994)" fill="#262627"/>
</svg>
