<svg xmlns="http://www.w3.org/2000/svg" width="53.99" height="23.007" viewBox="0 0 53.99 23.007">
  <path id="battery" d="M691.3,32a6.284,6.284,0,0,1-6.3-6.25V15.245A6.284,6.284,0,0,1,691.3,9H728.39a6.283,6.283,0,0,1,6.3,6.25V25.753a6.283,6.283,0,0,1-6.3,6.25Zm-4.293-16.757V25.753a4.279,4.279,0,0,0,4.293,4.256H728.39a4.279,4.279,0,0,0,4.293-4.256V15.245a4.279,4.279,0,0,0-4.293-4.256H691.3A4.279,4.279,0,0,0,687.008,15.245Zm3.4,13.135a1.759,1.759,0,0,1-1.759-1.76V14.38a1.76,1.76,0,0,1,1.759-1.76h26.5V28.38Zm45.928-12.259a2.638,2.638,0,0,1,2.65,2.627v3.5a2.638,2.638,0,0,1-2.65,2.627Z" transform="translate(-684.997 -8.996)" fill="#1b1b1b"/>
</svg>
