<svg xmlns="http://www.w3.org/2000/svg" width="43.342" height="43.88" viewBox="0 0 43.342 43.88">
  <path id="bubble_icon" data-name="bubble icon" d="M126.33,1058.261c-6.7-1.652-13.828-8.664-15.552-15.435-3.728-14.639,7.061-27.788,20.876-27.787a22.729,22.729,0,0,1,5.93.8,21.351,21.351,0,0,1,15.008,15.553,22.456,22.456,0,0,1-1.572,15.344,2.308,2.308,0,0,0-.175,1.606l2.51,9.507a.555.555,0,0,1-.679.689l-9.12-2.48a2.145,2.145,0,0,0-.553-.073,2.278,2.278,0,0,0-1.1.288,21.208,21.208,0,0,1-10.253,2.646A22.212,22.212,0,0,1,126.33,1058.261Zm-9.413-32.848a19.357,19.357,0,0,0-3.245,16.636c1.443,5.664,7.693,11.863,13.376,13.265a19.261,19.261,0,0,0,4.608.57,18.136,18.136,0,0,0,8.83-2.281,4.124,4.124,0,0,1,1.979-.515,3.929,3.929,0,0,1,1.034.139l6.288,1.709-1.748-6.621a4.217,4.217,0,0,1,.3-2.93,19.319,19.319,0,0,0,1.35-13.248,18.25,18.25,0,0,0-12.894-13.368,19.76,19.76,0,0,0-5.143-.695h0A18.422,18.422,0,0,0,116.917,1025.413Z" transform="translate(-110.034 -1015.039)" fill="#262627"/>
</svg>
