<svg xmlns="http://www.w3.org/2000/svg" width="47.999" height="42" viewBox="0 0 47.999 42">
  <path id="camera_icon" data-name="camera icon" d="M48,74A12,12,0,1,0,60,86,12,12,0,0,0,48,74Zm0,21a9,9,0,1,1,9-9A9,9,0,0,1,48,95ZM71.994,78.086A9.078,9.078,0,0,0,63,68.948h-.768A5.844,5.844,0,0,1,58.2,67.03l-1.948-1.992A6.782,6.782,0,0,0,51.435,63H44.562a6.779,6.779,0,0,0-4.813,2.034l-1.963,2a5.844,5.844,0,0,1-4.027,1.914h-.768a8.855,8.855,0,0,0-6.37,2.69A9.172,9.172,0,0,0,24,78.093l.007,17.768A9.08,9.08,0,0,0,33,105H63.01a8.858,8.858,0,0,0,6.37-2.691A9.168,9.168,0,0,0,72,95.854Zm-4.757,22.128a5.881,5.881,0,0,1-4.227,1.792H33A6.081,6.081,0,0,1,27,95.86L27,78.091a6.184,6.184,0,0,1,1.766-4.359,5.878,5.878,0,0,1,4.227-1.791h.768a8.839,8.839,0,0,0,6.168-2.812l1.964-2a3.714,3.714,0,0,1,2.671-1.135h6.874A3.721,3.721,0,0,1,54.11,67.13l1.946,1.993a8.844,8.844,0,0,0,6.178,2.819H63A6.081,6.081,0,0,1,69,78.087L69,95.855A6.185,6.185,0,0,1,67.237,100.214Z" transform="translate(-24 -63)" fill="#262626"/>
</svg>
