<svg xmlns="http://www.w3.org/2000/svg" width="47.969" height="41.006" viewBox="0 0 47.969 41.006">
  <path id="direct_icon" data-name="direct icon" d="M719.7,68.03l-22.144,36.952a2.105,2.105,0,0,1-2.152,1,2,2,0,0,1-1.686-1.6L689.6,82.9,672.721,68.6a2.045,2.045,0,0,1-.442-.521,1.963,1.963,0,0,1-.13-1.715,2.091,2.091,0,0,1,1.956-1.332L717.914,65a2.06,2.06,0,0,1,1.794,1A1.989,1.989,0,0,1,719.7,68.03ZM696.308,100.9l18.05-30.1L692.852,82.853Zm-5.03-20.742L712.75,68.13H677.08Z" transform="translate(-672.011 -65.001)" fill="#262627"/>
</svg>
