<svg xmlns="http://www.w3.org/2000/svg" width="37.008" height="46.003" viewBox="0 0 37.008 46.003">
  <path id="fav_icon" data-name="fav icon" d="M720.374,1059a1.609,1.609,0,0,1-1.072-.411L703.5,1044.454l-15.805,14.136a1.6,1.6,0,0,1-1.744.263,1.665,1.665,0,0,1-.954-1.514v-42.68A1.645,1.645,0,0,1,686.62,1013h33.754a1.645,1.645,0,0,1,1.627,1.662v42.68a1.665,1.665,0,0,1-.954,1.514A1.606,1.606,0,0,1,720.374,1059ZM703.5,1040.584a1.607,1.607,0,0,1,1.072.411l14.179,12.681v-37.355h-30.5v37.355L702.425,1041A1.607,1.607,0,0,1,703.5,1040.584Z" transform="translate(-684.993 -1012.998)" fill="#262627"/>
</svg>
