<svg height="480pt" viewBox="0 0 480 480" width="480pt" xmlns="http://www.w3.org/2000/svg">
<path fill="#888" stroke="#888" d="m240 480c-132.546875 0-240-107.453125-240-240s107.453125-240 240-240 240 107.453125 240 240c-.148438 132.484375-107.515625 239.851562-240 240zm0-464c-123.710938 0-224 100.289062-224 224s100.289062 224 224 224 224-100.289062 224-224c-.140625-123.652344-100.347656-223.859375-224-224zm0 0"/>
<path fill="#888" stroke="#888" d="m355.199219 405.976562-115.199219-53.175781-115.199219 53.175781 26.464844-122.777343-88-88.679688 115.71875-17.808593 61.601563-107.3125 52.796874 107.3125 123.585938 17.65625-88.234375 88.832031zm-115.199219-70.777343 92.800781 42.839843-21.535156-99.976562 71.839844-72.398438-100.417969-14.34375-43.199219-87.90625-50.398437 87.90625-92.347656 14.191407 72 72.550781-21.542969 99.960938zm0 0"/>
</svg>