<svg xmlns="http://www.w3.org/2000/svg" width="47.214" height="40.021" viewBox="0 0 47.214 40.021">
  <path id="heart_icon" data-name="heart icon" d="M534.438,1270.622a10.1,10.1,0,0,1,5.271,1.507,11.989,11.989,0,0,1,3.95,15.838c-2.157,3.963-11.143,11.384-18.833,17.007a.6.6,0,0,1-.712,0c-7.689-5.624-16.674-13.044-18.832-17.007a11.99,11.99,0,0,1,3.949-15.839,10.1,10.1,0,0,1,5.27-1.507c3.239,0,6.268,2.535,8.311,5.229l1.657,2.185,1.657-2.185c2.044-2.694,5.073-5.229,8.311-5.229m.387-2.776a13.022,13.022,0,0,0-10.355,5.253,13.022,13.022,0,0,0-10.354-5.253,12.611,12.611,0,0,0-6.611,1.885,14.553,14.553,0,0,0-4.859,19.233c2.99,5.491,15.613,15.029,20.173,18.364a2.8,2.8,0,0,0,3.3,0c4.561-3.335,17.185-12.872,20.175-18.364a14.553,14.553,0,0,0-4.86-19.233,12.615,12.615,0,0,0-6.612-1.885Z" transform="translate(-500.864 -1267.846)" fill="#262627"/>
</svg>
