<svg xmlns="http://www.w3.org/2000/svg" width="48.149" height="43" viewBox="0 0 48.149 43">
  <path id="heart_icon_liked" data-name="heart icon liked" d="M62.557,1016A13.068,13.068,0,0,0,52,1021.644,13.069,13.069,0,0,0,41.438,1016a12.375,12.375,0,0,0-6.742,2.025c-6.476,4.177-8.695,13.43-4.956,20.665,3.049,5.9,15.922,16.148,20.573,19.731a2.741,2.741,0,0,0,3.37,0c4.651-3.583,17.525-13.831,20.574-19.731,3.739-7.235,1.52-16.488-4.957-20.665A12.382,12.382,0,0,0,62.557,1016Z" transform="translate(-27.924 -1016)" fill="#ee4957"/>
</svg>
