<svg xmlns="http://www.w3.org/2000/svg" width="44.995" height="45.595" viewBox="0 0 44.995 45.595">
  <path id="home_icon" data-name="home icon" d="M74.5,1265.881a2.887,2.887,0,0,0-2.04.839l-18.947,18.81c-.967.96-1.511,1.272-1.511,2.63V1310.2c0,1.7,1.388,1.21,3.1,1.21H66.309c1.711,0,3.1.489,3.1-1.21v-12.078c0-2.243,2.834-4.061,5.093-4.061s5.092,1.818,5.092,4.061V1310.2c0,1.7,1.387,1.21,3.1,1.21H93.9c1.711,0,3.1.489,3.1-1.21V1288.16c0-1.358-.544-1.669-1.511-2.63l-18.947-18.81a2.886,2.886,0,0,0-2.039-.839" transform="translate(-52.002 -1265.881)" fill="#262627"/>
</svg>
