<svg xmlns="http://www.w3.org/2000/svg" width="206.303" height="58.242" viewBox="0 0 206.303 58.242">
  <path id="IG_logotype" data-name="IG logotype" d="M282.189,58.738c-4.22,1.759-8.865,6.728-10.331,12.966-1.857,7.9,5.871,11.247,6.505,10.151.743-1.288-1.384-1.723-1.825-5.825-.567-5.294,1.909-11.213,5.023-13.813.577-.481.549.19.549,1.434,0,2.223-.122,22.162-.122,26.322,0,5.628-.234,7.409-.653,9.162-.427,1.783-1.108,2.987-.593,3.449.581.517,3.052-.715,4.48-2.7a14.761,14.761,0,0,0,2.426-8.351c.13-3.752.124-9.695.13-13.086,0-3.113.054-12.218-.054-17.695-.028-1.34-3.77-2.75-5.536-2.013M476.947,88.315c-.613,0-.891.631-1.124,1.687-.8,3.68-1.644,4.509-2.732,4.509-1.216,0-2.305-1.819-2.586-5.466a121.4,121.4,0,0,1,.094-13.392c.06-1.078-.238-2.147-3.145-3.2-1.25-.453-3.07-1.118-3.978,1.06a53.893,53.893,0,0,0-3.792,13c-.014.1-.138.124-.162-.114A100.708,100.708,0,0,1,459,75.868a3.143,3.143,0,0,0-1.57-3.011c-.851-.535-3.433-1.482-4.364-.354-.805.917-1.741,3.391-2.71,6.33-.787,2.386-1.336,4-1.336,4s.01-6.436.018-8.877a1.25,1.25,0,0,0-.821-1.282,17.18,17.18,0,0,0-3.281-.665c-.887,0-1.1.493-1.1,1.214,0,.094-.142,8.475-.142,14.332v.827c-.489,2.694-2.085,6.35-3.818,6.35s-2.556-1.526-2.556-8.515c0-4.072.122-5.845.182-8.791.034-1.7.1-3,.1-3.3-.014-.909-1.59-1.366-2.321-1.534a6.866,6.866,0,0,0-1.881-.208,1.17,1.17,0,0,0-1.208,1.138c0,.342,0,.988,0,.988a6.8,6.8,0,0,0-3.353-2.706c-2.628-.775-5.37-.086-7.437,2.794a16.9,16.9,0,0,0-3.022,8.6,25.258,25.258,0,0,0,.314,7.82c-.613,2.632-1.751,3.714-2.994,3.714-1.807,0-3.117-2.934-2.964-8.01a45.752,45.752,0,0,1,1.5-9.072,2.919,2.919,0,0,0-.579-2.926c-.583-.663-1.831-1.006-3.621-.587-1.276.3-3.1.619-4.769.863a9.862,9.862,0,0,0,.184-1.1c.433-3.7-3.6-3.4-4.893-2.217a4.546,4.546,0,0,0-1.488,3.032A3.577,3.577,0,0,0,400.7,78.2a35.989,35.989,0,0,1-3.816,9.442,40.892,40.892,0,0,1-2.379,3.72c0-.431,0-.861-.008-1.29-.018-6.111.062-10.918.1-12.651.034-1.7.1-2.966.1-3.265-.008-.659-.4-.913-1.21-1.23a8.759,8.759,0,0,0-2.442-.543c-1.106-.086-1.777.5-1.757,1.194,0,.13,0,.93,0,.93a6.788,6.788,0,0,0-3.353-2.706c-2.628-.775-5.368-.086-7.437,2.794a18.356,18.356,0,0,0-3.024,8.575,26.1,26.1,0,0,0,.158,7.355c-.421,2.053-1.62,4.2-2.978,4.2-1.737,0-2.726-1.526-2.726-8.515,0-4.072.124-5.845.184-8.791.036-1.7.1-3,.1-3.3-.014-.909-1.592-1.366-2.323-1.534a6.763,6.763,0,0,0-1.939-.2,1.246,1.246,0,0,0-1.142,1.094v1.028a6.809,6.809,0,0,0-3.355-2.706c-2.628-.775-5.352-.074-7.435,2.794-1.36,1.869-2.46,3.944-3.024,8.533a28.038,28.038,0,0,0-.228,3.728c-.539,3.3-2.932,7.1-4.891,7.1-1.146,0-2.235-2.209-2.235-6.92,0-6.275.389-15.211.457-16.07l2.95-.05c1.234-.01,2.352.018,4-.068.823-.04,1.616-2.982.767-3.345a29.208,29.208,0,0,0-4.192-.335c-.907-.02-3.435-.208-3.435-.208s.226-5.927.282-6.556c.044-.521-.637-.791-1.026-.954a13.824,13.824,0,0,0-2.8-.8c-1.388-.286-2.017-.008-2.139,1.158-.186,1.767-.282,6.948-.282,6.948-1.017,0-4.495-.2-5.51-.2-.947,0-1.967,4.048-.661,4.1,1.506.058,4.128.108,5.865.16,0,0-.076,9.084-.076,11.89,0,.295,0,.583,0,.861a13.7,13.7,0,0,1-4.324,7.644c.723-3.281-.755-5.749-3.419-7.834-.979-.771-2.918-2.225-5.085-3.822a13,13,0,0,0,2.369-3.706c.789-1.755.823-3.764-1.114-4.208a5.789,5.789,0,0,0-6.622,4.1,4.732,4.732,0,0,0,.911,4.855c.084.108.18.222.279.332-.723,1.388-1.712,3.251-2.554,4.7-2.331,4.016-4.092,7.189-5.424,7.189-1.064,0-1.05-3.223-1.05-6.243,0-2.6.194-6.512.346-10.562A2.947,2.947,0,0,0,310.4,73.22a7.869,7.869,0,0,0-2.994-1.248c-1.27,0-4.927.174-8.386,10.125-.433,1.256-1.29,3.541-1.29,3.541l.072-11.968a.829.829,0,0,0-.493-.737,8.54,8.54,0,0,0-3.523-.962q-.988,0-.987.918l-.122,18.724a27.537,27.537,0,0,0,.18,3.808,4,4,0,0,0,.651,1.669,1.871,1.871,0,0,0,1.146.729c.5.1,3.245.453,3.387-.591a38.18,38.18,0,0,1,1.618-7.644c2.241-7.85,5.164-11.678,6.538-13.04.238-.236.517-.252.5.136-.058,1.72-.264,6.025-.4,9.674-.373,9.779,1.416,11.591,3.968,11.591,1.955,0,4.709-1.931,7.661-6.824,1.841-3.049,3.629-6.035,4.913-8.188.893.821,1.9,1.711,2.9,2.658,2.331,2.2,3.1,4.3,2.59,6.281-.389,1.518-1.853,3.083-4.457,1.562-.759-.445-1.083-.785-1.845-1.288a1.319,1.319,0,0,0-1.414-.064,5.017,5.017,0,0,0-1.849,2.812c-.31,1.122.817,1.713,1.987,2.231a15.486,15.486,0,0,0,4.553.9c5.38.178,9.686-2.586,12.685-9.713.539,6.155,2.822,9.641,6.792,9.641,2.654,0,5.314-3.415,6.479-6.774a11.86,11.86,0,0,0,1.466,3.567c3.06,4.823,8.993,3.786,11.974-.31a7.689,7.689,0,0,0,1.064-1.723,5.6,5.6,0,0,0,5.356,5.22c2.007,0,4.08-.943,5.53-4.2a9.624,9.624,0,0,0,.561,1.009c3.057,4.823,8.991,3.786,11.971-.31.142-.194.264-.365.369-.523l.088,2.54s-1.7,1.554-2.742,2.506c-4.6,4.192-8.1,7.379-8.354,11.085-.327,4.723,3.525,6.48,6.439,6.71a8.221,8.221,0,0,0,7.371-3.836c1.434-2.1,2.369-6.606,2.3-11.061-.028-1.781-.074-4.05-.108-6.482a51.744,51.744,0,0,0,5.109-6.985A52.871,52.871,0,0,0,404.44,78.2s1.7.014,3.515-.1c.579-.034.745.08.639.5-.128.509-2.291,8.811-.319,14.34,1.352,3.784,4.4,5,6.2,5,2.113,0,4.136-1.586,5.218-3.946.132.262.268.515.417.751,3.058,4.823,8.973,3.778,11.976-.31a12.067,12.067,0,0,0,1.06-1.723,5.815,5.815,0,0,0,5.564,5.24c1.867,0,3.637-.759,5.073-4.144a15.459,15.459,0,0,0,.3,3.093,2.081,2.081,0,0,0,1.007.673,7.752,7.752,0,0,0,4.092.2c.447-.09.8-.447.843-1.366.122-2.416.048-6.476.785-9.49a27.777,27.777,0,0,1,2.932-8c.3-.545.651-.635.663-.06.026,1.168.086,4.591.563,9.192.35,3.387.821,5.388,1.182,6.021a3.332,3.332,0,0,0,3.337,1.9c.659,0,2.035-.184,1.913-1.336a36.712,36.712,0,0,1,1.262-9.02,44.161,44.161,0,0,1,2.6-7.275c.176-.4.26-.082.256-.022-.1,2.241-.327,9.578.591,13.59,1.244,5.436,4.845,6.043,6.1,6.043,2.678,0,4.867-2.025,5.6-7.361.178-1.284-.084-2.277-.873-2.277m-112.195-3.3a17.335,17.335,0,0,1-1.594,6.9c-1.608,3.1-4.787,4.088-6.187-.4-1.011-3.235-.669-7.639-.248-10.023.625-3.535,2.187-6.039,4.627-5.8,2.506.246,3.723,3.449,3.4,9.326m24.482.04a19.164,19.164,0,0,1-1.594,6.856c-1.564,3.127-4.833,4.1-6.189-.4a22.457,22.457,0,0,1-.246-9.556c.593-3.251,2.037-6.27,4.625-6.27,2.52,0,3.762,2.75,3.4,9.366m.639,18.189c-.034,4.863-.8,9.128-2.452,10.368-2.341,1.757-5.484.437-4.833-3.109.577-3.145,3.3-6.352,7.293-10.269,0,0,.008.893-.008,3.01m42.262-18.161a17.145,17.145,0,0,1-1.594,6.828c-1.566,3.127-4.813,4.1-6.191-.4a25.285,25.285,0,0,1-.244-9.953c.551-3.479,2.085-6.109,4.625-5.873,2.508.234,3.681,3.449,3.4,9.394" transform="translate(-271.57 -58.536)" fill="#262627"/>
</svg>
