<svg xmlns="http://www.w3.org/2000/svg" width="44.978" height="50.804" viewBox="0 0 44.978 50.804">
  <path id="igtv_icon" data-name="igtv icon" d="M599.815,107A11.841,11.841,0,0,1,587.939,95.22V74.172a11.841,11.841,0,0,1,11.876-11.777h6.367l-3.031-3.258a1.743,1.743,0,0,1,.1-2.479,1.779,1.779,0,0,1,2.5.1l4.5,4.834,4.721-4.862a1.78,1.78,0,0,1,2.5-.046,1.744,1.744,0,0,1,.048,2.479l-3.138,3.231h6.661a11.841,11.841,0,0,1,11.876,11.777V95.22A11.841,11.841,0,0,1,621.041,107Zm-8.339-32.826V95.22a8.314,8.314,0,0,0,8.339,8.269h21.226a8.313,8.313,0,0,0,8.339-8.269V74.172a8.313,8.313,0,0,0-8.339-8.269H599.815A8.314,8.314,0,0,0,591.476,74.172Zm17.908,15.343a1.748,1.748,0,0,1-.724-1.415V84.323l-10.575,3.359a1.771,1.771,0,0,1-2.225-1.135A1.752,1.752,0,0,1,597,84.341l12.883-4.092a1.774,1.774,0,0,1,1.582.253,1.748,1.748,0,0,1,.726,1.417V85.7l10.165-3.2a1.772,1.772,0,0,1,2.221,1.14,1.751,1.751,0,0,1-1.151,2.2l-12.469,3.926a1.773,1.773,0,0,1-1.579-.257Z" transform="translate(-587.939 -56.193)" fill="#262627"/>
</svg>
