<svg xmlns="http://www.w3.org/2000/svg" width="32.971" height="20.018" viewBox="0 0 32.971 20.018">
  <path id="signal" d="M40.96,9.992h1.782a2.2,2.2,0,0,1,2.228,2.176V27.835a2.2,2.2,0,0,1-2.228,2.176H40.96a2.2,2.2,0,0,1-2.228-2.176V12.168h0A2.2,2.2,0,0,1,40.96,9.992Zm-8.911,4.352h1.782a2.2,2.2,0,0,1,2.228,2.176V27.835a2.2,2.2,0,0,1-2.228,2.176H32.049a2.2,2.2,0,0,1-2.228-2.176V16.52h0a2.2,2.2,0,0,1,2.228-2.176ZM23.138,18.7H24.92a2.2,2.2,0,0,1,2.228,2.176v6.963h0A2.2,2.2,0,0,1,24.92,30.01H23.138a2.2,2.2,0,0,1-2.228-2.176V20.872A2.2,2.2,0,0,1,23.138,18.7Zm-8.911,2.611h1.782a2.2,2.2,0,0,1,2.228,2.176v4.352a2.2,2.2,0,0,1-2.228,2.176H14.227A2.2,2.2,0,0,1,12,27.835V23.483a2.2,2.2,0,0,1,2.228-2.176Z" transform="translate(-11.999 -9.992)"/>
</svg>
