<svg xmlns="http://www.w3.org/2000/svg" width="46.989" height="46.857" viewBox="0 0 46.989 46.857">
  <path id="tagged_icon" data-name="tagged icon" d="M637.519,793A4.512,4.512,0,0,1,633,788.507V755.876a4.512,4.512,0,0,1,4.523-4.492h12.84l5.09-4.827a1.513,1.513,0,0,1,2.107.024l4.836,4.8h13.071a4.512,4.512,0,0,1,4.522,4.492v32.631A4.512,4.512,0,0,1,675.463,793ZM675.463,790a1.5,1.5,0,0,0,1.507-1.5V755.876a1.5,1.5,0,0,0-1.507-1.5h-13.7a1.513,1.513,0,0,1-1.066-.439l-4.235-4.207L652,753.964a1.514,1.514,0,0,1-1.041.415H637.519a1.5,1.5,0,0,0-1.508,1.5v32.631a1.5,1.5,0,0,0,1.508,1.5h3.458v-.2a9.083,9.083,0,0,1,9.1-9.041h12.76a9.084,9.084,0,0,1,9.1,9.041v.2Zm-6.533,0v-.2a6.075,6.075,0,0,0-6.089-6.046H650.08a6.075,6.075,0,0,0-6.089,6.046v.2Zm-21.988-22.243a9.549,9.549,0,1,1,9.549,9.483A9.527,9.527,0,0,1,646.942,767.762Zm3.016,0a6.533,6.533,0,1,0,6.533-6.489A6.518,6.518,0,0,0,649.958,767.762Z" transform="translate(-632.996 -746.142)" fill="#999"/>
</svg>
