<svg xmlns="http://www.w3.org/2000/svg" width="42.004" height="45.013" viewBox="0 0 42.004 45.013">
  <path id="user_icon" data-name="user icon" d="M693.5,1311v-3.721a10.036,10.036,0,0,0-9.965-10.084H666.456a10.035,10.035,0,0,0-9.965,10.084V1311H654v-3.721a12.549,12.549,0,0,1,12.461-12.609H683.54A12.548,12.548,0,0,1,696,1307.28V1311ZM662.5,1278.6a12.477,12.477,0,1,1,12.476,12.614A12.544,12.544,0,0,1,662.5,1278.6Zm2.495,0a9.982,9.982,0,1,0,9.981-10.09A10.048,10.048,0,0,0,664.993,1278.6Z" transform="translate(-653.996 -1265.989)" fill="#262627"/>
</svg>
